%
M48
M72
T01C0.0276
T02C0.0320
T03C0.0400
%
T01
X1366Y7850
X1366Y8850
X1366Y10350
X1366Y11350
X3334Y11350
X3334Y10350
X3334Y8850
X3334Y7850
X9850Y6334
X9850Y4366
T02
X5600Y5600
X5600Y7100
X7100Y5600
X7850Y7850
X8850Y7850
X9850Y7850
X10850Y7850
X10850Y6350
X10850Y2350
X10850Y10850
X9850Y10850
X8850Y10850
X7850Y10850
T03
X4350Y10850
X4350Y9850
X4350Y8850
X4350Y7850
X4350Y6850
X4350Y5850
M30
