G75*
%MOIN*%
%OFA0B0*%
%FSLAX24Y24*%
%IPPOS*%
%LPD*%
%AMOC8*
5,1,8,0,0,1.08239X$1,22.5*
%
%ADD10C,0.0520*%
%ADD11OC8,0.0660*%
%ADD12C,0.0650*%
%ADD13C,0.0740*%
%ADD14C,0.0059*%
%ADD15C,0.0500*%
D10*
X007850Y007850D03*
X008850Y007850D03*
X009850Y007850D03*
X010850Y007850D03*
X010850Y010850D03*
X009850Y010850D03*
X008850Y010850D03*
X007850Y010850D03*
D11*
X010850Y006350D03*
X010850Y002350D03*
D12*
X009850Y004366D03*
X009850Y006334D03*
X003334Y007850D03*
X003334Y008850D03*
X003334Y010350D03*
X003334Y011350D03*
X001366Y011350D03*
X001366Y010350D03*
X001366Y008850D03*
X001366Y007850D03*
D13*
X004350Y007850D03*
X004350Y006850D03*
X004350Y005850D03*
X005600Y005600D03*
X005600Y007100D03*
X007100Y005600D03*
X004350Y008850D03*
X004350Y009850D03*
X004350Y010850D03*
D14*
X001326Y001142D02*
X001177Y001142D01*
X001119Y001199D02*
X001397Y001199D01*
X001468Y001257D02*
X001085Y001257D01*
X001074Y001244D02*
X001244Y001074D01*
X001491Y001276D01*
X001591Y001225D01*
X001732Y001566D01*
X001679Y001594D01*
X001632Y001632D01*
X001594Y001679D01*
X001566Y001732D01*
X001548Y001790D01*
X001542Y001850D01*
X001549Y001913D01*
X001568Y001973D01*
X001599Y002028D01*
X001641Y002075D01*
X001691Y002113D01*
X001748Y002140D01*
X001810Y002155D01*
X001873Y002157D01*
X001935Y002146D01*
X001994Y002122D01*
X002046Y002087D01*
X002090Y002042D01*
X002125Y001989D01*
X002147Y001930D01*
X002157Y001867D01*
X002154Y001804D01*
X002138Y001743D01*
X002110Y001686D01*
X002072Y001637D01*
X002023Y001596D01*
X001968Y001566D01*
X002109Y001225D01*
X002209Y001276D01*
X002456Y001074D01*
X002626Y001244D01*
X002424Y001491D01*
X002475Y001591D01*
X002509Y001698D01*
X002827Y001730D01*
X002827Y001970D01*
X002509Y002002D01*
X002475Y002109D01*
X002424Y002209D01*
X002626Y002456D01*
X002456Y002626D01*
X002209Y002424D01*
X002109Y002475D01*
X002002Y002509D01*
X001970Y002827D01*
X001730Y002827D01*
X001698Y002509D01*
X001591Y002475D01*
X001491Y002424D01*
X001244Y002626D01*
X001074Y002456D01*
X001276Y002209D01*
X001225Y002109D01*
X001191Y002002D01*
X000873Y001970D01*
X000873Y001730D01*
X001191Y001698D01*
X001225Y001591D01*
X001276Y001491D01*
X001074Y001244D01*
X001132Y001314D02*
X001628Y001314D01*
X001604Y001257D02*
X001529Y001257D01*
X001652Y001372D02*
X001179Y001372D01*
X001225Y001429D02*
X001676Y001429D01*
X001700Y001487D02*
X001272Y001487D01*
X001249Y001544D02*
X001723Y001544D01*
X001670Y001602D02*
X001221Y001602D01*
X001203Y001660D02*
X001610Y001660D01*
X001574Y001717D02*
X001001Y001717D01*
X000873Y001775D02*
X001553Y001775D01*
X001544Y001832D02*
X000873Y001832D01*
X000873Y001890D02*
X001547Y001890D01*
X001560Y001947D02*
X000873Y001947D01*
X001192Y002005D02*
X001586Y002005D01*
X001629Y002062D02*
X001210Y002062D01*
X001231Y002120D02*
X001705Y002120D01*
X001997Y002120D02*
X002469Y002120D01*
X002490Y002062D02*
X002070Y002062D01*
X002114Y002005D02*
X002508Y002005D01*
X002440Y002178D02*
X001260Y002178D01*
X001255Y002235D02*
X002445Y002235D01*
X002492Y002293D02*
X001208Y002293D01*
X001161Y002350D02*
X002539Y002350D01*
X002586Y002408D02*
X001114Y002408D01*
X001084Y002465D02*
X001441Y002465D01*
X001370Y002523D02*
X001141Y002523D01*
X001199Y002580D02*
X001299Y002580D01*
X001572Y002465D02*
X002128Y002465D01*
X002259Y002465D02*
X002616Y002465D01*
X002559Y002523D02*
X002330Y002523D01*
X002401Y002580D02*
X002501Y002580D01*
X002001Y002523D02*
X001699Y002523D01*
X001705Y002580D02*
X001995Y002580D01*
X001989Y002638D02*
X001711Y002638D01*
X001717Y002696D02*
X001983Y002696D01*
X001977Y002753D02*
X001723Y002753D01*
X001728Y002811D02*
X001972Y002811D01*
X002140Y001947D02*
X002827Y001947D01*
X002827Y001890D02*
X002153Y001890D01*
X002155Y001832D02*
X002827Y001832D01*
X002827Y001775D02*
X002147Y001775D01*
X002126Y001717D02*
X002699Y001717D01*
X002497Y001660D02*
X002089Y001660D01*
X002031Y001602D02*
X002479Y001602D01*
X002451Y001544D02*
X001977Y001544D01*
X002000Y001487D02*
X002428Y001487D01*
X002475Y001429D02*
X002024Y001429D01*
X002048Y001372D02*
X002521Y001372D01*
X002568Y001314D02*
X002072Y001314D01*
X002096Y001257D02*
X002171Y001257D01*
X002232Y001257D02*
X002615Y001257D01*
X002581Y001199D02*
X002303Y001199D01*
X002374Y001142D02*
X002523Y001142D01*
X002466Y001084D02*
X002444Y001084D01*
X001256Y001084D02*
X001234Y001084D01*
D15*
X003150Y002705D02*
X003117Y002784D01*
X003096Y002806D01*
X003081Y002832D01*
X003015Y002887D01*
X002887Y003015D01*
X002832Y003081D01*
X002806Y003096D01*
X002784Y003117D01*
X002705Y003150D01*
X002629Y003190D01*
X002599Y003194D01*
X002571Y003205D01*
X002485Y003205D01*
X002414Y003212D01*
X002359Y003257D01*
X002298Y003318D01*
X002270Y003330D01*
X002247Y003349D01*
X002165Y003374D01*
X002085Y003406D01*
X002055Y003406D01*
X002026Y003415D01*
X001941Y003406D01*
X001759Y003406D01*
X001674Y003415D01*
X001645Y003406D01*
X001615Y003406D01*
X001535Y003374D01*
X001453Y003349D01*
X001430Y003330D01*
X001402Y003318D01*
X001341Y003257D01*
X001286Y003212D01*
X001215Y003205D01*
X001129Y003205D01*
X001101Y003194D01*
X001071Y003190D01*
X001000Y003152D01*
X001000Y007282D01*
X001067Y007243D01*
X001148Y007209D01*
X001234Y007187D01*
X001322Y007175D01*
X001366Y007175D01*
X001410Y007175D01*
X001498Y007187D01*
X001583Y007209D01*
X001665Y007243D01*
X001742Y007288D01*
X001812Y007341D01*
X001874Y007404D01*
X001928Y007474D01*
X001972Y007551D01*
X002006Y007633D01*
X002029Y007718D01*
X002041Y007806D01*
X002041Y007850D01*
X001366Y007850D01*
X002041Y007850D01*
X002041Y007894D01*
X002029Y007982D01*
X002006Y008067D01*
X001972Y008149D01*
X001928Y008226D01*
X001874Y008296D01*
X001820Y008350D01*
X001874Y008404D01*
X001928Y008474D01*
X001972Y008551D01*
X002006Y008633D01*
X002029Y008718D01*
X002041Y008806D01*
X002041Y008850D01*
X001366Y008850D01*
X002041Y008850D01*
X002041Y008894D01*
X002029Y008982D01*
X002006Y009067D01*
X001972Y009149D01*
X001928Y009226D01*
X001874Y009296D01*
X001812Y009359D01*
X001742Y009412D01*
X001665Y009457D01*
X001583Y009491D01*
X001498Y009513D01*
X001410Y009525D01*
X001366Y009525D01*
X001366Y008850D01*
X001366Y008850D01*
X001366Y007850D01*
X001366Y007850D01*
X001366Y007850D01*
X001366Y007175D01*
X001366Y007850D01*
X001366Y007850D01*
X001366Y008175D01*
X001366Y008850D01*
X001366Y008850D01*
X001366Y008850D01*
X001366Y009525D01*
X001322Y009525D01*
X001234Y009513D01*
X001148Y009491D01*
X001067Y009457D01*
X001000Y009418D01*
X001000Y009782D01*
X001067Y009743D01*
X001148Y009709D01*
X001234Y009687D01*
X001322Y009675D01*
X001366Y009675D01*
X001410Y009675D01*
X001498Y009687D01*
X001583Y009709D01*
X001665Y009743D01*
X001742Y009788D01*
X001812Y009841D01*
X001874Y009904D01*
X001928Y009974D01*
X001972Y010051D01*
X002006Y010133D01*
X002029Y010218D01*
X002041Y010306D01*
X002041Y010350D01*
X001366Y010350D01*
X002041Y010350D01*
X002041Y010394D01*
X002029Y010482D01*
X002006Y010567D01*
X001972Y010649D01*
X001928Y010726D01*
X001874Y010796D01*
X001820Y010850D01*
X001874Y010904D01*
X001928Y010974D01*
X001972Y011051D01*
X002006Y011133D01*
X002029Y011218D01*
X002041Y011306D01*
X002041Y011350D01*
X001366Y011350D01*
X002041Y011350D01*
X002041Y011394D01*
X002029Y011482D01*
X002006Y011567D01*
X001972Y011649D01*
X001928Y011726D01*
X001874Y011796D01*
X001812Y011859D01*
X001742Y011912D01*
X001665Y011957D01*
X001583Y011991D01*
X001498Y012013D01*
X001410Y012025D01*
X001366Y012025D01*
X001366Y011350D01*
X001366Y011350D01*
X001366Y011350D01*
X001366Y010350D01*
X001366Y010350D01*
X001366Y009675D01*
X001366Y010350D01*
X001366Y010350D01*
X001366Y010350D01*
X001366Y011025D01*
X001366Y011350D01*
X001366Y011350D01*
X001366Y012025D01*
X001322Y012025D01*
X001234Y012013D01*
X001148Y011991D01*
X001067Y011957D01*
X001000Y011918D01*
X001000Y012696D01*
X013070Y012696D01*
X013070Y001000D01*
X003152Y001000D01*
X003190Y001071D01*
X003194Y001101D01*
X003205Y001129D01*
X003205Y001215D01*
X003212Y001286D01*
X003257Y001341D01*
X003318Y001402D01*
X003330Y001430D01*
X003349Y001453D01*
X003374Y001535D01*
X003406Y001615D01*
X003406Y001645D01*
X003415Y001674D01*
X003406Y001759D01*
X003406Y001941D01*
X003415Y002026D01*
X003406Y002055D01*
X003406Y002085D01*
X003374Y002165D01*
X003349Y002247D01*
X003330Y002270D01*
X003318Y002298D01*
X003257Y002359D01*
X003212Y002414D01*
X003205Y002485D01*
X003205Y002571D01*
X003194Y002599D01*
X003190Y002629D01*
X003150Y002705D01*
X003085Y002825D02*
X003244Y002825D01*
X003672Y002397D02*
X003897Y002172D01*
X004191Y002050D01*
X008509Y002050D01*
X008803Y002172D01*
X009858Y003227D01*
X010050Y003034D01*
X010050Y002795D01*
X009970Y002715D01*
X009970Y001985D01*
X010485Y001470D01*
X011215Y001470D01*
X011730Y001985D01*
X011730Y002715D01*
X011650Y002795D01*
X011650Y003019D01*
X012303Y003672D01*
X012528Y003897D01*
X012650Y004191D01*
X012650Y011509D01*
X012528Y011803D01*
X012028Y012303D01*
X011803Y012528D01*
X011509Y012650D01*
X010191Y012650D01*
X009897Y012528D01*
X009397Y012028D01*
X009350Y011981D01*
X009028Y012303D01*
X008803Y012528D01*
X008509Y012650D01*
X005691Y012650D01*
X005397Y012528D01*
X004672Y011803D01*
X004562Y011539D01*
X004491Y011558D01*
X004397Y011570D01*
X004350Y011570D01*
X004350Y010850D01*
X004350Y010850D01*
X004350Y011570D01*
X004303Y011570D01*
X004209Y011558D01*
X004197Y011554D01*
X004076Y011846D01*
X003830Y012092D01*
X003508Y012225D01*
X003160Y012225D01*
X002839Y012092D01*
X002592Y011846D01*
X002459Y011524D01*
X002459Y011176D01*
X002534Y010995D01*
X002534Y010705D01*
X002459Y010524D01*
X002459Y010176D01*
X002592Y009854D01*
X002839Y009608D01*
X002858Y009600D01*
X002839Y009592D01*
X002592Y009346D01*
X002459Y009024D01*
X002459Y008676D01*
X002534Y008495D01*
X002534Y008205D01*
X002459Y008024D01*
X002459Y007676D01*
X002592Y007354D01*
X002839Y007108D01*
X003160Y006975D01*
X003508Y006975D01*
X003654Y007035D01*
X003642Y006991D01*
X003630Y006897D01*
X003630Y006850D01*
X004350Y006850D01*
X004350Y006850D01*
X004350Y007850D01*
X005070Y007850D01*
X005070Y007897D01*
X005058Y007991D01*
X005042Y008050D01*
X007056Y008050D01*
X007040Y008011D01*
X007040Y007689D01*
X007163Y007391D01*
X007391Y007163D01*
X007689Y007040D01*
X008011Y007040D01*
X008309Y007163D01*
X008498Y007352D01*
X008530Y007328D01*
X008616Y007285D01*
X008707Y007255D01*
X008802Y007240D01*
X008850Y007240D01*
X008898Y007240D01*
X008993Y007255D01*
X009050Y007274D01*
X009050Y006689D01*
X009033Y006649D01*
X008534Y006150D01*
X007851Y006150D01*
X007621Y006380D01*
X007283Y006520D01*
X006917Y006520D01*
X006579Y006380D01*
X006320Y006121D01*
X006241Y005930D01*
X006200Y006001D01*
X006142Y006076D01*
X006076Y006142D01*
X006001Y006200D01*
X005919Y006247D01*
X005832Y006283D01*
X005741Y006308D01*
X005647Y006320D01*
X005600Y006320D01*
X005600Y005600D01*
X005600Y005600D01*
X005600Y006320D01*
X005553Y006320D01*
X005459Y006308D01*
X005368Y006283D01*
X005281Y006247D01*
X005201Y006201D01*
X005130Y006371D01*
X004987Y006514D01*
X004997Y006531D01*
X005033Y006618D01*
X005041Y006646D01*
X005058Y006624D01*
X005124Y006558D01*
X005199Y006500D01*
X005281Y006453D01*
X005368Y006417D01*
X005459Y006392D01*
X005553Y006380D01*
X005600Y006380D01*
X005647Y006380D01*
X005741Y006392D01*
X005832Y006417D01*
X005919Y006453D01*
X006001Y006500D01*
X006076Y006558D01*
X006142Y006624D01*
X006200Y006699D01*
X006247Y006781D01*
X006283Y006868D01*
X006308Y006959D01*
X006320Y007053D01*
X006320Y007100D01*
X006320Y007147D01*
X006308Y007241D01*
X006283Y007332D01*
X006247Y007419D01*
X006200Y007501D01*
X006142Y007576D01*
X006076Y007642D01*
X006001Y007700D01*
X005919Y007747D01*
X005832Y007783D01*
X005741Y007808D01*
X005647Y007820D01*
X005600Y007820D01*
X005600Y007100D01*
X005600Y007100D01*
X006320Y007100D01*
X005600Y007100D01*
X005600Y007100D01*
X005600Y007820D01*
X005553Y007820D01*
X005459Y007808D01*
X005368Y007783D01*
X005281Y007747D01*
X005199Y007700D01*
X005124Y007642D01*
X005058Y007576D01*
X005000Y007501D01*
X004953Y007419D01*
X004917Y007332D01*
X004909Y007304D01*
X004892Y007326D01*
X004868Y007350D01*
X004892Y007374D01*
X004950Y007449D01*
X004997Y007531D01*
X005033Y007618D01*
X005058Y007709D01*
X005070Y007803D01*
X005070Y007850D01*
X004350Y007850D01*
X004350Y007850D01*
X004350Y007850D01*
X004350Y007570D01*
X004350Y006850D01*
X004350Y006850D01*
X003630Y006850D01*
X003630Y006803D01*
X003642Y006709D01*
X003667Y006618D01*
X003703Y006531D01*
X003713Y006514D01*
X003570Y006371D01*
X003450Y006081D01*
X002897Y005528D01*
X002672Y005303D01*
X002550Y005009D01*
X002550Y003691D01*
X002672Y003397D01*
X003672Y002397D01*
X003743Y002326D02*
X003290Y002326D01*
X003406Y001828D02*
X010128Y001828D01*
X009970Y002326D02*
X008957Y002326D01*
X009456Y002825D02*
X010050Y002825D01*
X010850Y002350D02*
X010850Y003350D01*
X011850Y004350D01*
X011850Y011350D01*
X011350Y011850D01*
X010350Y011850D01*
X009850Y011350D01*
X009850Y010850D01*
X008850Y010850D02*
X008850Y011350D01*
X008350Y011850D01*
X005850Y011850D01*
X005350Y011350D01*
X005350Y010350D01*
X004850Y009850D01*
X004350Y009850D01*
X003834Y009850D01*
X003334Y010350D01*
X003334Y011350D01*
X002573Y011798D02*
X001873Y011798D01*
X001366Y011798D02*
X001366Y011798D01*
X001000Y012296D02*
X005165Y012296D01*
X004669Y011798D02*
X004096Y011798D01*
X004350Y011299D02*
X004350Y011299D01*
X002643Y009804D02*
X001762Y009804D01*
X001366Y009804D02*
X001366Y009804D01*
X001366Y010302D02*
X001366Y010302D01*
X001366Y010801D02*
X001366Y010801D01*
X001366Y011299D02*
X001366Y011299D01*
X001870Y010801D02*
X002534Y010801D01*
X002459Y010302D02*
X002040Y010302D01*
X002040Y011299D02*
X002459Y011299D01*
X002576Y009305D02*
X001865Y009305D01*
X002041Y008807D02*
X002459Y008807D01*
X002534Y008308D02*
X001862Y008308D01*
X002041Y007810D02*
X002459Y007810D01*
X002636Y007311D02*
X001772Y007311D01*
X001366Y007311D02*
X001366Y007311D01*
X001366Y007810D02*
X001366Y007810D01*
X001366Y008308D02*
X001366Y008308D01*
X001366Y008807D02*
X001366Y008807D01*
X001366Y009305D02*
X001366Y009305D01*
X003334Y008850D02*
X003334Y007850D01*
X003334Y008850D02*
X004350Y008850D01*
X010350Y008850D01*
X010850Y008350D01*
X010850Y007850D01*
X009850Y007850D02*
X009850Y006334D01*
X008866Y005350D01*
X007350Y005350D01*
X007100Y005600D01*
X006869Y004700D02*
X006579Y004820D01*
X006320Y005079D01*
X006241Y005270D01*
X006200Y005199D01*
X006142Y005124D01*
X006076Y005058D01*
X006001Y005000D01*
X005919Y004953D01*
X005832Y004917D01*
X005741Y004892D01*
X005647Y004880D01*
X005600Y004880D01*
X005600Y005600D01*
X005600Y005600D01*
X005600Y004880D01*
X005553Y004880D01*
X005459Y004892D01*
X005368Y004917D01*
X005281Y004953D01*
X005199Y005000D01*
X005124Y005058D01*
X005058Y005124D01*
X005000Y005199D01*
X004871Y005070D01*
X004581Y004950D01*
X004150Y004519D01*
X004150Y004181D01*
X004681Y003650D01*
X008019Y003650D01*
X008919Y004550D01*
X007191Y004550D01*
X006897Y004672D01*
X006869Y004700D01*
X006583Y004819D02*
X004450Y004819D01*
X004150Y004320D02*
X008689Y004320D01*
X008190Y003822D02*
X004510Y003822D01*
X004350Y002850D02*
X008350Y002850D01*
X009850Y004350D01*
X009850Y004366D01*
X010850Y003366D01*
X010850Y003350D01*
X011650Y002825D02*
X013070Y002825D01*
X013070Y003323D02*
X011954Y003323D01*
X012453Y003822D02*
X013070Y003822D01*
X013070Y004320D02*
X012650Y004320D01*
X012650Y004819D02*
X013070Y004819D01*
X013070Y005317D02*
X012650Y005317D01*
X012650Y005816D02*
X013070Y005816D01*
X013070Y006314D02*
X012650Y006314D01*
X012650Y006813D02*
X013070Y006813D01*
X013070Y007311D02*
X012650Y007311D01*
X012650Y007810D02*
X013070Y007810D01*
X013070Y008308D02*
X012650Y008308D01*
X012650Y008807D02*
X013070Y008807D01*
X013070Y009305D02*
X012650Y009305D01*
X012650Y009804D02*
X013070Y009804D01*
X013070Y010302D02*
X012650Y010302D01*
X012650Y010801D02*
X013070Y010801D01*
X013070Y011299D02*
X012650Y011299D01*
X012531Y011798D02*
X013070Y011798D01*
X013070Y012296D02*
X012035Y012296D01*
X009665Y012296D02*
X009035Y012296D01*
X008850Y007850D02*
X008850Y007240D01*
X008850Y007850D01*
X008850Y007850D01*
X008850Y007810D02*
X008850Y007810D01*
X008850Y007311D02*
X008850Y007311D01*
X008564Y007311D02*
X008457Y007311D01*
X009050Y006813D02*
X006260Y006813D01*
X006513Y006314D02*
X005693Y006314D01*
X005600Y006314D02*
X005600Y006314D01*
X005600Y006380D02*
X005600Y007100D01*
X005600Y007100D01*
X005600Y006380D01*
X005507Y006314D02*
X005154Y006314D01*
X005600Y006813D02*
X005600Y006813D01*
X005600Y007311D02*
X005600Y007311D01*
X005600Y007810D02*
X005600Y007810D01*
X005473Y007810D02*
X005070Y007810D01*
X004911Y007311D02*
X004904Y007311D01*
X004350Y007311D02*
X004350Y007311D01*
X004350Y007810D02*
X004350Y007810D01*
X003630Y006813D02*
X001000Y006813D01*
X001000Y006314D02*
X003546Y006314D01*
X003184Y005816D02*
X001000Y005816D01*
X001000Y005317D02*
X002686Y005317D01*
X002550Y004819D02*
X001000Y004819D01*
X001000Y004320D02*
X002550Y004320D01*
X002550Y003822D02*
X001000Y003822D01*
X001000Y003323D02*
X001413Y003323D01*
X002287Y003323D02*
X002746Y003323D01*
X003350Y003850D02*
X004350Y002850D01*
X003350Y003850D02*
X003350Y004850D01*
X004350Y005850D01*
X005600Y005816D02*
X005600Y005816D01*
X005600Y005317D02*
X005600Y005317D01*
X006289Y007311D02*
X007243Y007311D01*
X007040Y007810D02*
X005727Y007810D01*
X007687Y006314D02*
X008698Y006314D01*
X009850Y006334D02*
X010834Y006334D01*
X010850Y006350D01*
X009866Y006334D02*
X009850Y006334D01*
X011730Y002326D02*
X013070Y002326D01*
X013070Y001828D02*
X011572Y001828D01*
X013070Y001329D02*
X003248Y001329D01*
M02*
